<svg width="30" height="30" viewBox="0 0 30 30" fill="none" xmlns="http://www.w3.org/2000/svg">
<path d="M28.605 1.395C28.7501 1.5401 28.8653 1.71236 28.9438 1.90196C29.0224 2.09156 29.0628 2.29478 29.0628 2.5C29.0628 2.70522 29.0224 2.90844 28.9438 3.09804C28.8653 3.28764 28.7501 3.4599 28.605 3.605L3.605 28.605C3.45989 28.7501 3.28762 28.8652 3.09802 28.9438C2.90843 29.0223 2.70522 29.0627 2.5 29.0627C2.29478 29.0627 2.09157 29.0223 1.90198 28.9438C1.71238 28.8652 1.54011 28.7501 1.395 28.605C1.24989 28.4599 1.13478 28.2876 1.05625 28.098C0.977715 27.9084 0.937294 27.7052 0.937294 27.5C0.937294 27.2948 0.977715 27.0916 1.05625 26.902C1.13478 26.7124 1.24989 26.5401 1.395 26.395L26.395 1.395C26.5401 1.24987 26.7124 1.13474 26.902 1.05619C27.0916 0.977638 27.2948 0.937209 27.5 0.937209C27.7052 0.937209 27.9084 0.977638 28.098 1.05619C28.2876 1.13474 28.4599 1.24987 28.605 1.395ZM6.25 10C5.25544 10 4.30161 9.60491 3.59835 8.90165C2.89509 8.19839 2.5 7.24456 2.5 6.25C2.5 5.25544 2.89509 4.30161 3.59835 3.59835C4.30161 2.89509 5.25544 2.5 6.25 2.5C7.24456 2.5 8.19839 2.89509 8.90165 3.59835C9.60491 4.30161 10 5.25544 10 6.25C10 7.24456 9.60491 8.19839 8.90165 8.90165C8.19839 9.60491 7.24456 10 6.25 10ZM6.25 12.5C7.9076 12.5 9.49732 11.8415 10.6694 10.6694C11.8415 9.49732 12.5 7.9076 12.5 6.25C12.5 4.5924 11.8415 3.00269 10.6694 1.83058C9.49732 0.65848 7.9076 0 6.25 0C4.5924 0 3.00269 0.65848 1.83058 1.83058C0.65848 3.00269 0 4.5924 0 6.25C0 7.9076 0.65848 9.49732 1.83058 10.6694C3.00269 11.8415 4.5924 12.5 6.25 12.5ZM23.75 27.5C22.7554 27.5 21.8016 27.1049 21.0983 26.4017C20.3951 25.6984 20 24.7446 20 23.75C20 22.7554 20.3951 21.8016 21.0983 21.0983C21.8016 20.3951 22.7554 20 23.75 20C24.7446 20 25.6984 20.3951 26.4017 21.0983C27.1049 21.8016 27.5 22.7554 27.5 23.75C27.5 24.7446 27.1049 25.6984 26.4017 26.4017C25.6984 27.1049 24.7446 27.5 23.75 27.5ZM23.75 30C25.4076 30 26.9973 29.3415 28.1694 28.1694C29.3415 26.9973 30 25.4076 30 23.75C30 22.0924 29.3415 20.5027 28.1694 19.3306C26.9973 18.1585 25.4076 17.5 23.75 17.5C22.0924 17.5 20.5027 18.1585 19.3306 19.3306C18.1585 20.5027 17.5 22.0924 17.5 23.75C17.5 25.4076 18.1585 26.9973 19.3306 28.1694C20.5027 29.3415 22.0924 30 23.75 30Z" fill="white"/>
</svg>
