<svg width="36" height="25" viewBox="0 0 36 25" fill="none" xmlns="http://www.w3.org/2000/svg">
<path d="M0.696434 11.3571L9.625 0.64286C9.7929 0.441283 10.0032 0.279176 10.2408 0.168067C10.4785 0.056958 10.7377 -0.000423684 11 2.35512e-06H30.6429C32.0637 2.35512e-06 33.4263 0.564414 34.4309 1.56907C35.4356 2.57373 36 3.93634 36 5.35714V19.6429C36 21.0637 35.4356 22.4263 34.4309 23.4309C33.4263 24.4356 32.0637 25 30.6429 25H11C10.7377 25.0004 10.4785 24.943 10.2408 24.8319C10.0032 24.7208 9.7929 24.5587 9.625 24.3571L0.696434 13.6429C0.429173 13.322 0.282818 12.9176 0.282818 12.5C0.282818 12.0824 0.429173 11.678 0.696434 11.3571ZM11.8393 21.4286H30.6429C31.1165 21.4286 31.5707 21.2404 31.9055 20.9055C32.2404 20.5707 32.4286 20.1165 32.4286 19.6429V5.35714C32.4286 4.88354 32.2404 4.42934 31.9055 4.09445C31.5707 3.75957 31.1165 3.57143 30.6429 3.57143H11.8393L4.39286 12.5L11.8393 21.4286ZM16.875 7.66072C17.041 7.49334 17.2385 7.3605 17.4561 7.26984C17.6737 7.17918 17.9071 7.1325 18.1429 7.1325C18.3786 7.1325 18.612 7.17918 18.8296 7.26984C19.0472 7.3605 19.2447 7.49334 19.4107 7.66072L21.7143 9.98214L24.0179 7.66072C24.3541 7.32446 24.8102 7.13555 25.2857 7.13555C25.7613 7.13555 26.2173 7.32446 26.5536 7.66072C26.8898 7.99697 27.0787 8.45303 27.0787 8.92857C27.0787 9.16403 27.0324 9.39719 26.9423 9.61473C26.8521 9.83227 26.7201 10.0299 26.5536 10.1964L24.2321 12.5L26.5536 14.8036C26.7209 14.9696 26.8538 15.1671 26.9444 15.3847C27.0351 15.6023 27.0818 15.8357 27.0818 16.0714C27.0818 16.3072 27.0351 16.5406 26.9444 16.7582C26.8538 16.9758 26.7209 17.1733 26.5536 17.3393C26.3876 17.5067 26.1901 17.6395 25.9725 17.7302C25.7549 17.8208 25.5215 17.8675 25.2857 17.8675C25.05 17.8675 24.8166 17.8208 24.599 17.7302C24.3814 17.6395 24.1839 17.5067 24.0179 17.3393L21.7143 15.0179L19.4107 17.3393C19.2447 17.5067 19.0472 17.6395 18.8296 17.7302C18.612 17.8208 18.3786 17.8675 18.1429 17.8675C17.9071 17.8675 17.6737 17.8208 17.4561 17.7302C17.2385 17.6395 17.041 17.5067 16.875 17.3393C16.7076 17.1733 16.5748 16.9758 16.4841 16.7582C16.3935 16.5406 16.3468 16.3072 16.3468 16.0714C16.3468 15.8357 16.3935 15.6023 16.4841 15.3847C16.5748 15.1671 16.7076 14.9696 16.875 14.8036L19.1964 12.5L16.875 10.1964C16.7076 10.0304 16.5748 9.83292 16.4841 9.61532C16.3935 9.39771 16.3468 9.16431 16.3468 8.92857C16.3468 8.69284 16.3935 8.45943 16.4841 8.24183C16.5748 8.02422 16.7076 7.82672 16.875 7.66072Z" fill="white"/>
</svg>
