<svg width="27" height="15" viewBox="0 0 27 15" fill="none" xmlns="http://www.w3.org/2000/svg">
<path d="M24.375 3.75H1.875C1.37772 3.75 0.900806 3.55246 0.549175 3.20082C0.197544 2.84919 0 2.37228 0 1.875C0 1.37772 0.197544 0.900806 0.549175 0.549175C0.900806 0.197544 1.37772 0 1.875 0H24.375C24.8723 0 25.3492 0.197544 25.7008 0.549175C26.0525 0.900806 26.25 1.37772 26.25 1.875C26.25 2.37228 26.0525 2.84919 25.7008 3.20082C25.3492 3.55246 24.8723 3.75 24.375 3.75ZM24.375 15H1.875C1.37772 15 0.900806 14.8025 0.549175 14.4508C0.197544 14.0992 0 13.6223 0 13.125C0 12.6277 0.197544 12.1508 0.549175 11.7992C0.900806 11.4475 1.37772 11.25 1.875 11.25H24.375C24.8723 11.25 25.3492 11.4475 25.7008 11.7992C26.0525 12.1508 26.25 12.6277 26.25 13.125C26.25 13.6223 26.0525 14.0992 25.7008 14.4508C25.3492 14.8025 24.8723 15 24.375 15Z" fill="black"/>
</svg>
